<svg id="_0067_chat" xmlns="http://www.w3.org/2000/svg" xmlns:xlink="http://www.w3.org/1999/xlink" viewBox="0 0 500 500" data-imageid="chatting-33" imageName="Chatting" class="illustrations_image" style="width: 166px;"><defs><style>.cls-1_chatting-33{fill:url(#linear-gradient);}.cls-1_chatting-33,.cls-2_chatting-33,.cls-3_chatting-33,.cls-4_chatting-33,.cls-5_chatting-33,.cls-6_chatting-33,.cls-7_chatting-33,.cls-8_chatting-33,.cls-9_chatting-33,.cls-10_chatting-33,.cls-11_chatting-33,.cls-12_chatting-33,.cls-13_chatting-33,.cls-14_chatting-33,.cls-15_chatting-33,.cls-16_chatting-33,.cls-17_chatting-33,.cls-18_chatting-33,.cls-19_chatting-33,.cls-20_chatting-33{stroke-width:0px;}.cls-2_chatting-33,.cls-7_chatting-33{opacity:.18;}.cls-2_chatting-33,.cls-7_chatting-33,.cls-8_chatting-33,.cls-9_chatting-33{isolation:isolate;}.cls-2_chatting-33,.cls-9_chatting-33,.cls-20_chatting-33{fill:#68e1fd;}.cls-3_chatting-33{fill:url(#linear-gradient-11-chatting-33);}.cls-4_chatting-33{fill:url(#linear-gradient-12-chatting-33);}.cls-5_chatting-33{fill:url(#linear-gradient-13-chatting-33);}.cls-6_chatting-33{fill:url(#linear-gradient-10-chatting-33);}.cls-7_chatting-33,.cls-18_chatting-33{fill:#fff;}.cls-8_chatting-33{fill:url(#linear-gradient-2-chatting-33);opacity:.69;}.cls-9_chatting-33{opacity:.32;}.cls-10_chatting-33{fill:url(#linear-gradient-4-chatting-33);}.cls-11_chatting-33{fill:url(#linear-gradient-3-chatting-33);}.cls-12_chatting-33{fill:url(#linear-gradient-8-chatting-33);}.cls-13_chatting-33{fill:url(#linear-gradient-9-chatting-33);}.cls-14_chatting-33{fill:url(#linear-gradient-7-chatting-33);}.cls-15_chatting-33{fill:url(#linear-gradient-5-chatting-33);}.cls-16_chatting-33{fill:url(#linear-gradient-6-chatting-33);}.cls-17_chatting-33{fill:#231f20;}.cls-19_chatting-33{fill:#ffb4a3;}</style><linearGradient id="linear-gradient-chatting-33" x1="269.35" y1="1193.88" x2="285.5" y2="1757.48" gradientTransform="translate(-30.99 1953.13) scale(1 -1)" gradientUnits="userSpaceOnUse"><stop offset="0" stop-color="#000"/><stop offset="1" stop-color="#000" stop-opacity="0"/></linearGradient><linearGradient id="linear-gradient-2-chatting-33" x1="387.78" y1="1312.07" x2="384.46" y2="1998.35" gradientTransform="translate(-131.65 1949.54) scale(1 -1)" gradientUnits="userSpaceOnUse"><stop offset=".02" stop-color="#fff" stop-opacity="0"/><stop offset=".58" stop-color="#fff" stop-opacity=".39"/><stop offset=".68" stop-color="#fff" stop-opacity=".68"/><stop offset="1" stop-color="#fff"/></linearGradient><linearGradient id="linear-gradient-3-chatting-33" x1="288.23" y1="-560.26" x2="288.23" y2="-487.24" gradientTransform="translate(-30.99 598.5)" gradientUnits="userSpaceOnUse"><stop offset="0" stop-color="#231f20" stop-opacity="0"/><stop offset="1" stop-color="#231f20"/></linearGradient><linearGradient id="linear-gradient-4-chatting-33" x1="293.28" y1="1611.47" x2="279.38" y2="1806.18" gradientTransform="translate(-31 2125.13) scale(1 -1)" gradientUnits="userSpaceOnUse"><stop offset="0" stop-color="#000" stop-opacity="0"/><stop offset=".49" stop-color="#000" stop-opacity=".2"/><stop offset=".52" stop-color="#000" stop-opacity=".23"/><stop offset=".99" stop-color="#000"/></linearGradient><linearGradient id="linear-gradient-5-chatting-33" x1="223.69" y1="-526.97" x2="225.65" y2="-193.18" xlink:href="#linear-gradient-3-chatting-33"/><linearGradient id="linear-gradient-6-chatting-33" x1="366.59" y1="-451.97" x2="342.47" y2="-11.9" xlink:href="#linear-gradient-3-chatting-33"/><linearGradient id="linear-gradient-7-chatting-33" x1="308.71" y1="1660.33" x2="318.99" y2="1527.71" gradientTransform="translate(-131.65 1949.54) scale(1 -1)" xlink:href="#linear-gradient-chatting-33"/><linearGradient id="linear-gradient-8-chatting-33" x1="485.94" y1="1779.61" x2="477.06" y2="1646.52" gradientTransform="translate(-131.65 1949.54) scale(1 -1)" xlink:href="#linear-gradient-chatting-33"/><linearGradient id="linear-gradient-9-chatting-33" x1="275.75" y1="1867.59" x2="282.62" y2="1743.34" gradientTransform="translate(-131.65 1949.54) scale(1 -1)" xlink:href="#linear-gradient-chatting-33"/><linearGradient id="linear-gradient-10-chatting-33" x1="222.59" y1="-452.1" x2="162.39" y2="-439.94" xlink:href="#linear-gradient-3-chatting-33"/><linearGradient id="linear-gradient-11-chatting-33" x1="204.84" y1="1823.5" x2="202.39" y2="1822.57" gradientTransform="translate(-30.99 1953.13) scale(1 -1)" gradientUnits="userSpaceOnUse"><stop offset="0" stop-color="#68e1fd"/><stop offset=".2" stop-color="#68e1fd"/><stop offset=".46" stop-color="#68e1fd"/><stop offset=".69" stop-color="#231f20"/><stop offset=".87" stop-color="#231f20"/><stop offset=".99" stop-color="#231f20"/></linearGradient><linearGradient id="linear-gradient-12-chatting-33" x1="354.82" y1="1822.38" x2="345.83" y2="1785.57" gradientTransform="translate(-131.65 1949.54) scale(1 -1)" xlink:href="#linear-gradient-3-chatting-33"/><linearGradient id="linear-gradient-13-chatting-33" x1="446.65" y1="1719.01" x2="558.12" y2="1658.08" gradientTransform="translate(-131.65 1949.54) scale(1 -1)" xlink:href="#linear-gradient-3-chatting-33"/></defs><path id="background_chatting-33" class="cls-2_chatting-33 targetColor" d="M124.49,69.57c-24.91,9.97-51.54,16.84-73.49,32.28-21.94,15.44-38.54,42.77-31.31,68.6,5.61,20.01,24.32,35.65,25.17,56.44.68,16.57-10.28,31.04-16.1,46.57-11.76,31.38-1.59,67.92,19.21,94.16,20.8,26.24,50.79,43.7,81.51,57.07,72.8,31.58,152.59,43.6,231.46,34.86,23.51-2.64,47.23-7.27,68.07-18.46,20.84-11.19,38.66-29.74,44.49-52.66,7.93-31.14-6.9-64.76,1.2-95.85,3.17-12.2,9.75-23.33,12.55-35.62,6.74-29.62-9.68-59.86-30.56-81.91-20.89-22.04-46.67-39.3-65.76-62.92-13.23-16.36-22.92-35.38-36.52-51.43-26.72-31.58-69.87-50.21-111.28-48.23-41.13,1.95-79.85,41.57-118.64,57.11Z" style="fill: rgb(173, 212, 109);"/><g id="gadget_chatting-33"><rect class="cls-20_chatting-33 targetColor" x="109.14" y="41.29" width="288.49" height="387.26" rx="27.03" ry="27.03" style="fill: rgb(173, 212, 109);"/><rect class="cls-1_chatting-33" x="109.14" y="41.29" width="288.49" height="387.26" rx="27.03" ry="27.03"/><path class="cls-20_chatting-33 targetColor" d="M378.42,85.82v306.31c0,13.25-10.74,23.98-23.99,23.99h-200.47c-13.24,0-23.98-10.74-23.98-23.98h0V85.82c0-13.24,10.73-23.98,23.97-23.99h200.45c13.25,0,24,10.73,24.01,23.98h0Z" style="fill: rgb(173, 212, 109);"/><path class="cls-8_chatting-33" d="M378.42,85.82v306.31c0,13.25-10.74,23.98-23.99,23.99h-200.47c-13.24,0-23.98-10.74-23.98-23.98h0V85.82c0-13.24,10.73-23.98,23.97-23.99h200.45c13.25,0,24,10.73,24.01,23.98h0Z"/><path class="cls-11_chatting-33" d="M232.77,51.5h48.95c1.28,0,2.32,1.04,2.32,2.32h0c0,1.28-1.04,2.32-2.32,2.32h-48.95c-1.28,0-2.32-1.04-2.32-2.32h0c0-1.28,1.04-2.32,2.32-2.32Z"/></g><g id="shadow_chatting-33"><path id="shadow-2_chatting-33" class="cls-10_chatting-33" d="M110.44,429.59l1.18,5.36c-7.67,5.56-17.5,6.89-26.73,9.03-9.23,2.14-19.02,5.85-23.78,14.04,6.86,8.89,19.64,9.96,30.87,10.26,90.56,2.36,181.17,2.69,271.82.97,28.76-.55,57.68-1.31,85.91-6.85,2.02-.39,4.28-.98,5.29-2.78,1.73-3.09-1.54-6.54-4.53-8.34-9.91-5.93-21.26-9.01-32.81-8.9-4.34.05-10.03-.41-11.03-4.63-.34-1.54.12-3.09.07-4.63-.12-3.86-3.43-6.95-7.07-8.1-3.64-1.16-7.57-.77-11.38-.42-71.71,6.9-144.53,1.54-216.48-2.13-11.41-.59-22.14,5.67-33.47,4.21-10.64-1.34-18.33-3.43-27.87,2.92Z"/><path class="cls-15_chatting-33" d="M254.6,98.22c.7-3.09,1.4-6.17,1.13-9.32-2.41,2.47-5.7,3.89-9.15,3.94-.41-.05-.82.03-1.19.22-.48.45-.7,1.1-.61,1.75,0,3.79-.06,7.79-2,11.04s-5.27,5.09-8.75,6.17c-7.72,2.45-16.05,1.38-24.04.15-1.83-.29-3.74-.61-5.19-1.75-1.97-1.54-2.64-4.29-2.38-6.78s1.33-4.81,2.32-7.12c1.54-3.67,2.8-7.58,2.39-11.52s-2.92-7.9-6.76-8.88c-1.64-.5-3.42-.11-4.71,1.03-.6.67-1.07,1.46-1.37,2.32-3.27,8.06-5.39,16.54-6.3,25.19-4.46-.42-8.71,1.85-13.12,2.47-2.83.4-41.99.6-44.84.41,0,0-.4,4.5.66,5.95,1.06,1.45,6.8,1.47,8.49,2.11,12.03,4.63,25.27,4.33,38.1,5.5,21.9,2,48.23,9.01,67.57-5.13,6.01-4.4,8.15-10.69,9.76-17.74Z"/><path class="cls-16_chatting-33" d="M284.82,201.87c.38-7.36-1.81-14.62-4.78-21.36-2.96-6.75-6.69-13.12-9.64-19.87-.77-1.71-1.3-4.04.2-5.14.46,1.16,2.26.83,3.16-.05s1.54-2.12,2.79-2.41c1.77,2.87,3.3,5.88,4.55,9.02l8.77,20.07c.93,2.15,1.91,4.36,3.68,5.89,2.74,2.36,6.77,2.59,10.28,2.5,2.33-.06,4.65-.3,6.95-.69,2.57-.45,5.48-1.19,6.99-3.38,2.32-3.4.11-8.22,1.54-12.09.68-1.61,1.77-3,3.16-4.04,1.78-1.44,4.24-2.57,6.32-1.61,1.03.58,1.9,1.41,2.52,2.42,5.4,7.53,8.42,16.76,14.96,23.32,3.76-.04,7.36-1.5,10.1-4.08,2.64-2.51,4.63-5.61,6.69-8.6,3.55-5.13,7.43-10.03,11.32-14.88l4.18-5.26c.12-.17.28-.31.48-.39.48-.12.77.49.91.97,1.54,7.09-3.13,13.98-8.15,19.21-3.86,4.04-8.28,7.93-11,12.71-.94,1.65-.36,3.75,1.29,4.7,0,0,0,0,0,0,.43.25.91.4,1.4.44,9.15.77,18.52-1.03,27.74.09,2.79.34,6.05,1.38,6.51,4.32.18,1.51-.4,3.01-1.54,4.01-1.96,1.87-4.63,2.24-7.22,2.55-29.2,3.59-58.66,4.63-88.05,5.6-1.16.11-2.33,0-3.45-.29-2.44-.77-3.86-3.27-5.24-5.4-2.06-3.11-4.56-5.9-7.42-8.3Z"/></g><g id="bubble_chat_chatting-33"><path class="cls-14_chatting-33" d="M256.12,304.88l-150.34-.95c-11.87-.06-21.54,9.5-21.61,21.37l-.14,22.15c-.08,11.88,9.49,21.57,21.37,21.65h0l142.57.89c9.41.07,18.42,3.78,25.16,10.33l3.99,3.86.22-35.5.05-8.49.08-13.68c.06-11.87-9.5-21.54-21.37-21.61v-.02Z"/><path class="cls-18_chatting-33" d="M259.23,304.88l-150.34-.95c-11.87-.06-21.54,9.5-21.61,21.37l-.14,22.15c-.08,11.88,9.49,21.57,21.37,21.65h0l142.55.89c9.42.06,18.45,3.77,25.2,10.33l3.99,3.86.22-35.5.05-8.49.08-13.68c.06-11.87-9.5-21.54-21.37-21.61l-.02-.02Z"/><path class="cls-9_chatting-33 targetColor" d="M219.25,326.84h-70.77c-2.4,0-4.34-1.94-4.35-4.34h0c0-2.4,1.95-4.35,4.35-4.35h70.77c2.4,0,4.34,1.94,4.34,4.34h0c0,2.4-1.93,4.34-4.33,4.35h0Z" style="fill: rgb(173, 212, 109);"/><rect class="cls-9_chatting-33 targetColor" x="144.14" y="337.99" width="79.45" height="8.68" rx="4.34" ry="4.34" style="fill: rgb(173, 212, 109);"/><path class="cls-12_chatting-33" d="M434.65,223.34v19.57c.06,10.44-8.36,18.96-18.8,19.02h-124.75c-8.26-.03-16.19,3.18-22.11,8.95l-3.5,3.39v-50.94c-.02-8.24,5.28-15.56,13.12-18.11,1.85-.59,3.78-.9,5.72-.9h131.52c10.44.06,18.85,8.57,18.79,19.01,0,0,0,0,0,0Z"/><path class="cls-18_chatting-33" d="M434.65,221.75v19.03c0,10.23-8.29,18.52-18.52,18.52h-122.61c-8.1,0-15.89,3.13-21.73,8.74l-3.47,3.29v-49.58c0-10.2,8.25-18.48,18.45-18.52h129.38c10.22.01,18.5,8.3,18.5,18.52Z"/><circle class="cls-20_chatting-33 targetColor" cx="165.18" cy="241.01" r="6.07" style="fill: rgb(173, 212, 109);"/><circle class="cls-20_chatting-33 targetColor" cx="183.85" cy="241.01" r="6.07" style="fill: rgb(173, 212, 109);"/><circle class="cls-20_chatting-33 targetColor" cx="202.52" cy="241.01" r="6.07" style="fill: rgb(173, 212, 109);"/><circle class="cls-20_chatting-33 targetColor" cx="314.54" cy="344.06" r="6.07" style="fill: rgb(173, 212, 109);"/><circle class="cls-20_chatting-33 targetColor" cx="333.21" cy="344.06" r="6.07" style="fill: rgb(173, 212, 109);"/><circle class="cls-20_chatting-33 targetColor" cx="351.87" cy="344.06" r="6.07" style="fill: rgb(173, 212, 109);"/><circle class="cls-20_chatting-33 targetColor" cx="289.8" cy="137.29" r="6.07" style="fill: rgb(173, 212, 109);"/><circle class="cls-20_chatting-33 targetColor" cx="308.47" cy="137.29" r="6.07" style="fill: rgb(173, 212, 109);"/><circle class="cls-20_chatting-33 targetColor" cx="327.13" cy="137.29" r="6.07" style="fill: rgb(173, 212, 109);"/><path class="cls-9_chatting-33 targetColor" d="M418.56,225.02h-70.78c-2.4,0-4.34-1.94-4.35-4.34h0c0-2.4,1.94-4.34,4.34-4.34h70.79c2.4,0,4.34,1.94,4.34,4.34h0c0,2.4-1.94,4.34-4.34,4.34Z" style="fill: rgb(173, 212, 109);"/><path class="cls-9_chatting-33 targetColor" d="M418.56,242.8h-70.78c-2.4,0-4.34-1.94-4.35-4.34h0c0-2.39,1.95-4.32,4.35-4.31h70.78c2.4,0,4.34,1.94,4.34,4.34h0c-.02,2.38-1.95,4.31-4.34,4.31Z" style="fill: rgb(173, 212, 109);"/><path class="cls-13_chatting-33" d="M230.85,130.83l3.24,49.61h-3.24l-3.44-3.31c-5.85-5.61-14.76-7.62-22.85-7.62h-122.63c-10.23,0-18.52-8.29-18.52-18.52l1.15-20.16c0-10.23,8.29-18.52,18.52-18.52h129.28c6.12-.01,11.85,3.01,15.29,8.07h0c2.11,3.08,3.23,6.73,3.2,10.46Z"/><path class="cls-18_chatting-33" d="M234.09,130.83v49.61l-3.45-3.31c-5.84-5.61-13.62-8.75-21.72-8.74h-122.67c-10.23,0-18.52-8.29-18.52-18.52v-19.03c0-10.23,8.29-18.52,18.52-18.52h129.31c6.12-.01,11.84,3.01,15.29,8.07h0c2.12,3.08,3.25,6.72,3.23,10.46Z"/><rect class="cls-9_chatting-33 targetColor" x="77.37" y="128.61" width="79.45" height="8.68" rx="4.34" ry="4.34" style="fill: rgb(173, 212, 109);"/><rect class="cls-9_chatting-33 targetColor" x="77.37" y="146.39" width="79.45" height="8.68" rx="4.34" ry="4.34" style="fill: rgb(173, 212, 109);"/></g><g id="character_1_chatting-33"><path class="cls-20_chatting-33 targetColor" d="M232.41,132.05c-4.08,1.76-4.79,1.48-9.15,2.25-4.36.76-7.77.21-11.92-1.34-2.85,8.69-5.87,18.18-6.65,27.29-.25,2.74-.7,5.46-1.32,8.14h-26.24c-.08-.59-.15-1.19-.21-1.81-.69-8.39-.6-16.82.29-25.19.07-.51.11-1.03.13-1.54.02-.42-.01-.84-.09-1.26-.23-.89-.6-1.74-1.1-2.51-1.04-1.83-3.56-4.63-4.96-6.66-.19-.28-.36-.54-.49-.77.84-3.86,4.55-5.75,6.28-9.26,1.28-2.69,3.1-5.08,5.35-7.03.72-.61,1.5-1.16,2.32-1.64,2.96-1.72,6.38-2.41,9.79-2.93.53-.08,1.06-.16,1.59-.23,2.19,1.6,4.79,2.52,7.49,2.67.85-.02,1.7.07,2.53.27.7.27,1.36.64,1.95,1.11l1.03.77c1.9,1.35,3.8,2.72,5.7,4.08,1.32,1,2.72,1.88,4.19,2.64,4.76,2.25,6.73,2.05,11.96,1.38h0c.61,3.3,1.23,8.17,1.53,11.57Z" style="fill: rgb(173, 212, 109);"/><path class="cls-19_chatting-33" d="M194.4,107.56c-1.37,1.26,2.61,5.6,4.05,6.78s3.64,1.17,5.46.63c1.22-.36,2.52-1.04,2.85-2.28.11-.88.03-1.77-.24-2.62-.33-1.81,0-3.72-.49-5.51-.55-1.81-1.68-3.39-3.2-4.5-1.43-1.12-5.28-4.09-6.07-1.12-.86,3.16.84,5.66-2.35,8.62Z"/><path class="cls-6_chatting-33" d="M194.09,168.38h-16.21c-.3-.62-.63-1.23-1-1.81-.08-.12-.17-.23-.27-.33-.71-.75-1.2-1.68-1.43-2.69-2.08-7.19-1.74-14.87.96-21.84.25-.7.64-1.34,1.15-1.88.83-.89,1.78-1.32,2.66-2.96,1.75-3.22,5.09-8.71,6.75-11.97.66,6.34-1.81,12.21-1.54,18.57.13,3.7.27,7.47,1.54,10.96,1.06,2.88,2.73,5.49,4.89,7.66.8.92,2.06,3.95,2.49,6.29Z"/><path class="cls-19_chatting-33" d="M230.85,120.42s1.37,9.96,1.31,9.39,19.49-5.9,25.07-24.4c.43-.62.95-1.16,1.54-1.61,6.95-5.19,8.03-7.37,5.95-6.1-1.07.74-2.38,1.07-3.67.93.77-.64,1.48-1.35,2.12-2.11.82-1,2.61-2.02,3.05-3.23.06-.13.09-.28.08-.43-.08-.29-.36-.47-.66-.44-.28.04-.54.15-.77.31-1.05.65-2.05,1.38-3,2.16-.59.49-2.23,1.14-1.67,0,.88-1.81,2.83-3.02,3.35-4.96.09-.22.07-.47-.05-.67-.2-.25-.6-.17-.9,0-1.06.48-4.25,4.85-5.02,4.75s.84-4.68.9-5.56c0-.24,0-.52-.21-.64-.23-.09-.49-.01-.65.18-2.04,1.68-2.32,4.63-3.63,6.95-.17.39-.49.7-.89.86-.84.25-1.54-.71-2.4-.9-.15-.05-.32-.05-.47,0-.47.21-.4.94-.12,1.37,3.86,5.88-5.97,20.03-19.28,24.14Z"/><path class="cls-19_chatting-33" d="M173.38,130.5s-4.05,32.62-.95,37.88h6.74c-1.38-10.48-1.12-21.11.77-31.51,0,0-.59-5.13-6.56-6.37Z"/><path class="cls-19_chatting-33" d="M217.76,98.59c-.83,2.9-2.21,5.76-4.53,7.72-4.43,3.7-11.03,3.11-14.73-1.33-1.79-2.15-2.65-4.93-2.38-7.71,0-.24,0-.53-.17-.67-.18-.06-.38-.06-.56,0-1.13.12-1.98-1.06-2.32-2.14-.31-.82-.39-1.7-.22-2.56.18-.87.8-1.57,1.64-1.84.87-.24,1.78.24,2.05,1.1.16-1.61.69-3.15,1.54-4.52.87-1.78,2.04-3.4,3.46-4.79,3.11-2.62,7.41-3.3,11.17-1.76,3.32,1.37,5.88,4.1,7.03,7.5.45,1.54-.21,2.88-.51,4.38-.5,2.15-.85,4.46-1.48,6.61Z"/><path class="cls-17_chatting-33" d="M197.09,92.62c-.09.13-.24.2-.39.22-.3,0-.38-.42-.4-.71,0-.72-.27-1.42-.77-1.95-.52-.52-1.37-.52-1.89,0,0,0,0,0,0,0h0c-.51-3.39.21-6.86,2.04-9.76.22-.28.37-.61.42-.96,0-.46-.26-.9-.18-1.35.1-.32.3-.61.56-.82.81-.84,1.79-1.49,2.88-1.91,1.09-.42,2.31-.29,3.28.37,2.46-1.45,5.26-2.23,8.11-2.26,1.66-.04,3.31.24,4.86.83,2.8,1.16,5.07,3.33,6.35,6.07,1.26,2.74,1.71,5.78,1.32,8.78-5.21,2.36-11.35.11-13.81-5.06-.22,1.21-.09,2.46.38,3.6-1.91-.94-3.26-2.73-3.64-4.82-.58-.54-1.46.15-1.94.77-1.23,1.63-2.38,3.54-3.86,4.94-.67.5-1.28,1.06-1.83,1.69-.59.73-.84,1.66-1.5,2.35Z"/><polygon class="cls-3_chatting-33" points="174.18 130.5 170.65 128.61 173.21 132.09 173.38 130.5 174.18 130.5"/><path class="cls-4_chatting-33" d="M211.33,132.95c.23-1.84,1.84-3.19,3.69-3.09,3.46-.1,16.87-1.87,16.87-1.87l.52,4.08s-11.86,5.02-21.08.88Z"/><path class="cls-7_chatting-33" d="M230.85,120.42v1.81s-11.72,3.16-24.1-9.58l-.77-2.18c.7.27,1.36.64,1.95,1.11l1.03.77,5.7,4.08c1.32,1,2.72,1.88,4.19,2.64,4.76,2.25,6.73,2.05,11.96,1.38l.04-.02Z"/><path class="cls-7_chatting-33" d="M195.04,110.47s-12.19-.59-17.98,13.3c-1.24,2.96-4.3,5.99-4.3,5.99l-1.61-.34c-.19-.28-.36-.54-.49-.77.84-3.86,4.55-5.75,6.28-9.26,1.28-2.69,3.1-5.08,5.35-7.03.72-.61,1.5-1.16,2.32-1.64,2.96-1.72,6.38-2.41,9.79-2.93l.63,2.68Z"/></g><g id="character_2_chatting-33"><path class="cls-17_chatting-33" d="M299.01,199.46c-.77-1.54-2.01-2.72-2.76-4.21-1.62-3.2-.67-7.16,1.24-10.19.77-1.26,1.78-2.47,2.06-3.93.33-1.71-.33-3.58.39-5.17.59-1.28,1.91-2.02,3.09-2.84,1.78-1.27,3.33-2.94,5.34-3.79,2.01-.85,4.81-.54,5.8,1.42,1.86-.92,4.21-.08,5.6,1.44s2.01,3.61,2.43,5.63c.36,2.32.89,4.61,1.59,6.85.82,2.2,2.25,4.29,4.38,5.29,4.12,1.93,9.86-.57,13.12,2.64,1.67,1.66,2.26,4.59,4.52,5.23,1.17.32,2.43-.1,3.59.21,2,.54,2.82,2.96,2.87,5.02.07,4.1-1.57,8.04-4.53,10.88-1.44,1.37-3.27,2.64-3.57,4.63-.03,1.01.05,2.02.23,3.01.32,3.82-2.53,7.18-6.35,7.49-1.69.14-3.38-.35-4.74-1.37-1.64-1.22-3.02-3.26-5.06-3.17-.89.12-1.74.46-2.47.99-1.6,1.1-3.38,1.92-5.25,2.43-1.91.5-3.94.04-5.44-1.25-1.16-1.13-1.59-2.79-2.15-4.31-.91-2.47-2.57-5.01-5.16-5.5-1.11-.21-2.26,0-3.37-.19-7.53-1.21-3.11-12.63-5.4-17.25Z"/><path class="cls-19_chatting-33" d="M359.33,173.52c1.87-2.99,3.29-6.24,4.2-9.65.4-1.43,1.05-2.77,1.93-3.97.22-.3.64-.37.94-.15.19.14.3.37.27.61l-.31,3.09c1.54-1.79,3.37-5.07,5.96-7.8.15-.15.39-.15.53,0,.1.1.13.26.08.39l-2.08,5.23c-.03.11.03.23.14.26,0,0,0,0,0,0h0c.08.02.16,0,.22-.06l3.09-4.16c1.67-1.2,1.48.56,1.33.98l-2.01,3.86c-.06.13,0,.28.13.34.09.04.2.02.27-.04.88-.86,1.82-1.67,2.8-2.41.3-.2.7-.12.9.18.14.2.15.47.03.68l-3.09,4.31c-.37.52-.69.82-.05.77l2.22-.82c.66-.26.35,1.26-.23,1.67-3.23,2.32-4.55,4.12-6.78,6.04-2.24,1.92-16.6,25.61-23.16,34.01-2.38,3.05-6.95,5.08-8.79.17-1.38-3.72,2.86-7.2,4.89-9.89,5.85-7.63,11.37-15.51,16.58-23.64Z"/><path class="cls-20_chatting-33 targetColor" d="M343.19,210.1c-.52,1.46-1.39,2.76-2.54,3.8-2.15,1.97-4.89,3.2-7.01,5.2-4.71,4.43-5.49,11.51-5.98,17.95l-1.72,22.24h-32.42c-2.32,0-4.64.26-6.91.77.42-5.97.78-11.94,1.08-17.91.57-11.21.59-23.55-6.55-32.22-.74-.7-1.25-1.62-1.47-2.62-.09-1.15.69-2.17,1.42-3.09.05-.05.08-.09.12-.15l4.77-5.83c.49-.79,1.27-1.34,2.18-1.54.79.05,1.52.4,2.06.97,1.84,1.67,3.51,3.51,5,5.5.98,1.23,1.94,2.49,2.96,3.69,4.81,5.68,12.15,9.68,19.08,5.13,4.76-3.23,9.72-6.15,14.85-8.74,2.39-1.16,4.84-2.19,7.34-3.09-.15,1.2.49,2.17,1.29,3.09.85.87,1.61,1.84,2.24,2.88.59,1.24.67,2.66.21,3.95Z" style="fill: rgb(173, 212, 109);"/><path class="cls-19_chatting-33" d="M286.66,203.84c1.49-2.65,1.98-5.75,1.39-8.74-.59-2.95-1.54-5.83-2.82-8.55l-8.14-19.3c-.73-1.57-1.3-3.22-1.69-4.91-.56-2.89-.11-5.87.35-8.77-.52-.15-1.07-.09-1.54.15.15,1.6-.69,3.13-2.11,3.86-.72-2.9-2.03-5.62-3.86-7.98.2,2.16.35,4.32.45,6.48-1.7-1.74-3.4-3.48-5.11-5.22-1.32,2.32,3.43,4.78,2.32,7.22l-5.6-4.04c-.41,2.75,4.04,4.04,4.28,6.82l-4.02-1.88c.85,2.08,2.82,3.43,4.38,5.05,5.73,6.03,5.73,15.36,9.31,22.85,2.05,4.31,4.25,7.84,5.18,12.56.69,3.54,3.74,10.03,7.26,4.38Z"/><path class="cls-19_chatting-33" d="M316.21,212.33c-.27,2.15-2.28,4.01-4.46,4.53-.55.15-1.13.19-1.7.14-3.09-.32-4.49-4.13-4.43-7.24.06-3.11.77-6.28-.65-8.93,0-.08-.08-.17-.13-.25-.77-1.37-2.12-2.38-2.81-3.81-.63-1.61-.77-3.38-.4-5.07.92-6.45,5.97-23.5,15.71-17.12,2.52,1.65,4.03,4.51,4.89,7.39,3.06,10.18-3.47,10-6.03,30.36Z"/><path class="cls-17_chatting-33" d="M313.49,176.66c1.3.77,1.95,2.32,2.25,3.86.84,4.28-.52,8.65-1.29,12.95s-.77,9.26,2.25,12.43l.07.08c2.39,2.43,6.3,2.47,8.73.08.59-.57,1.05-1.25,1.37-2.01.15-.33.32-.66.49-.97,1.17-2.08,2.81-3.86,3.97-5.94.95-1.75,1.61-3.65,1.95-5.61.43-2,.44-4.07.04-6.07-.77-3.37-3.09-6.17-5.51-8.58-2.42-2.4-4.89-4.42-7.95-5.49-3.06-1.07-6.72-.9-9.26,1.1-.77.62-2.89,3.09-1.79,4.17.93.83,3.33-.83,4.69,0Z"/><path class="cls-5_chatting-33" d="M343.19,210.1c-.52,1.46-1.39,2.76-2.54,3.8-2.15,1.97-4.89,3.2-7.01,5.2-4.71,4.43-5.49,11.51-5.98,17.95l-1.72,22.24h-24.49s13.35-27.11,16.98-34.29c3.64-7.18,14.75-11.9,14.75-11.9,8.66-6.71,10.01-3.01,10.01-3.01Z"/><path class="cls-19_chatting-33" d="M312.14,216.49c-.11.14-.24.27-.39.38-.55.15-1.13.19-1.7.14-3.09-.32-4.49-4.13-4.43-7.24.06-3.11,1.21-6.11-1.37-10.03,1.35.98,3.14,1.59,7.06,1.84,2.83.15,1.13,14.5.82,14.91Z"/></g></svg>